<svg class="svgicon svgicon-header-toggle" xmlns="http://www.w3.org/2000/svg" width="20" height="13" viewBox="0 0 20 13"><path d="M0.417341 3.06343C0.194341 2.78709 0.0540819 2.45329 0.0127759 2.1006C-0.0285311 1.74792 0.0307989 1.39074 0.183911 1.07035C0.337021 0.74996 0.577661 0.479435 0.878021 0.29003C1.17839 0.100625 1.52621 7.6e-05 1.88131 0H17.7008C18.0559 7.6e-05 18.4038 0.100625 18.7041 0.29003C19.0045 0.479435 19.2451 0.74996 19.3982 1.07035C19.5513 1.39074 19.6107 1.74792 19.5694 2.1006C19.5281 2.45329 19.3878 2.78709 19.1648 3.06343L11.9861 11.9508C11.7215 12.2784 11.387 12.5427 11.007 12.7242C10.627 12.9058 10.2112 13 9.79013 13C9.36903 13 8.95324 12.9058 8.57327 12.7242C8.19329 12.5427 7.85876 12.2784 7.59419 11.9508L0.417341 3.06343ZM17.7008 1.88171H1.88131L9.05816 10.769C9.14633 10.8782 9.25783 10.9663 9.38453 11.0269C9.51113 11.0874 9.64973 11.1188 9.79013 11.1188C9.93053 11.1188 10.0691 11.0874 10.1957 11.0269C10.3224 10.9663 10.4339 10.8782 10.5221 10.769L17.7008 1.88171Z"/></svg>