<svg class="svgicon svgicon-yt" xmlns="http://www.w3.org/2000/svg" width="30" height="24" viewBox="0 0 30 24"><path d="M15.367 0C16.168 0.00450028 18.1721 0.0240014 20.3023 0.109507L21.0583 0.142509C23.2019 0.243015 25.3441 0.417026 26.4076 0.712544C27.8252 1.11157 28.9383 2.27264 29.3148 3.74573C29.9149 6.08588 29.9899 10.6492 29.9989 11.7547L30.0004 11.9827V12.2438C29.9899 13.3493 29.9149 17.9141 29.3148 20.2528C28.9338 21.7304 27.8192 22.8929 26.4076 23.286C25.3441 23.5815 23.2019 23.7555 21.0583 23.856L20.3023 23.8905C18.1721 23.9745 16.168 23.9955 15.367 23.9985L15.0144 24H14.6319C12.9368 23.9895 5.84737 23.913 3.59122 23.286C2.17514 22.8869 1.06057 21.7259 0.684043 20.2528C0.0840054 17.9126 0.00900056 13.3493 0 12.2438V11.7547C0.00900056 10.6492 0.0840054 6.08438 0.684043 3.74573C1.06507 2.26814 2.17964 1.10557 3.59272 0.714044C5.84737 0.0855051 12.9383 0.00900056 14.6334 0H15.367ZM11.9992 6.75042V17.2511L20.9998 12.0007L11.9992 6.75042Z"/></svg>