<svg class="svgicon svgicon-mail" xmlns="http://www.w3.org/2000/svg" width="24" height="24" viewBox="0 0 24 24"><path d="M19.9995 0H4.0005C2.94048 0.00316546 1.92477 0.425662 1.17522 1.17522C0.425662 1.92477 0.00316546 2.94048 0 4.0005L0 19.9995C0 22.2 1.8 24 4.0005 24H19.9995C22.2015 24 24 22.2 24 19.9995V4.0005C23.9972 2.94035 23.5749 1.92442 22.8252 1.17478C22.0756 0.425142 21.0596 0.00277164 19.9995 0ZM6 6H18C18.2145 6 18.4215 6.0465 18.6135 6.132L12 13.8465L5.3865 6.132C5.57914 6.04444 5.78839 5.99942 6 6ZM4.5 16.5V7.5L4.503 7.4055L8.901 12.537L4.551 16.887C4.51664 16.7609 4.49949 16.6307 4.5 16.5ZM18 18H6C5.868 18 5.7375 17.982 5.613 17.949L9.882 13.68L12.0015 16.152L14.121 13.68L18.39 17.949C18.2639 17.9834 18.1337 18.0005 18.003 18H18ZM19.5 16.5C19.5 16.632 19.482 16.7625 19.449 16.887L15.099 12.537L19.497 7.4055L19.5 7.5V16.5Z"/></svg>