<svg class="svgicon svgicon-tiktok" xmlns="http://www.w3.org/2000/svg" width="24" height="24" viewBox="0 0 24 24"><path d="M19 0H5C2.2 0 0 2.2 0 5V19C0 21.8 2.2 24 5 24H19C21.8 24 24 21.8 24 19V5C24 2.2 21.8 0 19 0ZM18 10.3C16.9 10.3 15.9 10 15 9.3V13.8C15 16.1 13.2 17.9 11 17.9C8.9 17.9 7 16.2 7 13.8C7 11.3 9.1 9.4 11.5 9.7V12C10.3 11.6 9.1 12.5 9.1 13.8C9.1 14.8 9.9 15.7 10.9 15.7C11.4 15.7 11.8 15.5 12.2 15.2C12.5 14.9 12.7 14.4 12.8 13.9V5H15C15 5.7 15.3 6.5 15.7 7C16.7 8.1 18 8.1 18 8.1V10.3Z"/></svg>