<svg class="svgicon og-logo" xmlns="http://www.w3.org/2000/svg" width="520.2" height="89" viewBox="0 0 520.2 89"><path d="M42.5,3.2c-7.6,0-14.7,1.9-21.3,5.7s-11.8,9-15.6,15.5C1.9,31.1,0,38.2,0,46c0,11.6,4,21.7,12.1,30.2s18.3,12.7,30.5,12.7c11.7,0,21.6-4.1,29.8-12.4c8.2-8.2,12.3-18.3,12.3-30.2c0-12-4.2-22.2-12.5-30.5C64,7.4,54.1,3.2,42.5,3.2z M61.5,65.9c-5.2,5.3-11.4,8-18.8,8c-6.5,0-12.3-2.1-17.3-6.2c-6.5-5.2-9.7-12.4-9.7-21.4c0-8.1,2.6-14.8,7.7-20s11.5-7.9,19-7.9s13.8,2.7,19,8.1s7.8,11.9,7.8,19.7C69.2,54,66.6,60.6,61.5,65.9z"/><polygon points="86.8,19.5 101.9,19.5 101.9,89 118.4,89 118.4,19.5 134,19.5 134,3.5 86.8,3.5 "/><path d="M407,3.5L374,89h16.9l7-17.6h34.9l6.7,17.6h16.9L423.5,3.5H407z M403.9,55.5l11.5-29.3l11.4,29.3H403.9z"/><polygon points="321.1,89 367.8,89 367.8,73 337.2,73 337.2,50.5 367.8,50.5 367.8,34.9 337.2,34.9 337.2,19.4 367.8,19.4 367.8,3.5 321.1,3.5 "/><path d="M313.8,42.7c0,0-0.4-2.2-2.5-2.2c-2.3,0-32.3,0.1-40,0.1c-1.7,0.1-1.7,1.7-1.7,1.7s0,11.8,0.1,13.2c0,1.5,1.4,1.6,1.4,1.6l23.2-0.1c-4.6,9.2-14.1,15.5-25,15.5c-8.9,0-16.8-4.2-21.9-10.6l0,0c0,0-1.2-1.7-1.4-2l-28.4-39.6c-0.7-1.1-1.4-2.1-2.2-3.1l-0.1-0.2l0,0c-9-11.5-23.6-18.5-39.6-16.8C155,2.3,138.4,18.8,136,39.4C133,66.2,154,89,180.3,89c16,0,29.9-8.2,37.7-20.9c0.5-0.6-0.1-1.3-0.1-1.3l-10.1-14.2c0,0-0.7-0.5-0.8,0.1c-0.1,0.2,0,0-0.1,0.2c-3.9,12.4-16.2,21.2-30.2,19.5c-12.6-1.6-22.8-11.8-24.2-24.5c-1.9-16.9,11.3-31.2,27.8-31.2c8.9,0,16.9,4.2,22,10.8l1.4,2c0.3,0.4,0.6,0.9,0.8,1.3L234.3,72c8.2,10.4,20.8,17.2,35.1,17.2c24.5,0,44.5-20,44.5-44.5C313.8,43.9,313.8,43.3,313.8,42.7L313.8,42.7z"/><path d="M241.2,35.9c0,0,1.3,1,1.7-0.4c3.5-11.5,13.9-19,26.5-19c11,0,20.4,6.1,24.9,15.4c0.5,0.9,1.5,1,1.5,1l15.3-0.1c0,0,1.2-0.3,0.8-1.3C306.5,12.9,289.5,0,269.3,0c-15.9,0-29.7,7.9-37.6,20.5c-0.8,1.1,0.1,2.3,0.1,2.3L241.2,35.9z"/><path d="M496.1,53c11.4-1.9,17.4-12.8,17.4-23.6c0-18.2-11.7-25.7-28.5-25.7h-22.5V89h16.6V54.5h0.2L500,88.9h20.1L496.1,53z M481.2,42.9h-2.1V17.2h2.3c8.8,0,15.5,2,15.5,12.6C496.8,40.2,490.4,42.9,481.2,42.9z"/></svg>